<?xml version="1.0" standalone="no"?>
<!DOCTYPE svg PUBLIC "-//W3C//DTD SVG 20010904//EN"
 "http://www.w3.org/TR/2001/REC-SVG-20010904/DTD/svg10.dtd">
<svg version="1.0" xmlns="http://www.w3.org/2000/svg"
 width="1080.000000pt" height="1080.000000pt" viewBox="0 0 1080.000000 1080.000000"
 preserveAspectRatio="xMidYMid meet">
<metadata>
Created by potrace 1.11, written by Peter Selinger 2001-2013
</metadata>
<g transform="translate(0.000000,1080.000000) scale(0.100000,-0.100000)"
fill="#000000" stroke="none">
<path d="M5220 10642 c0 -4 -11 -8 -25 -8 -53 -3 -149 -104 -212 -222 -56
-104 -63 -117 -84 -167 -27 -62 -79 -202 -78 -208 1 -1 -6 -20 -15 -42 -13
-34 -22 -65 -43 -145 -3 -8 -6 -22 -7 -30 -1 -8 -5 -24 -9 -35 -6 -18 -11 -43
-24 -115 -2 -14 -5 -58 -7 -97 l-3 -73 46 -22 c25 -12 51 -23 56 -25 6 -1 20
-4 33 -7 86 -22 152 -36 185 -40 17 -3 46 -7 62 -10 214 -36 513 -37 680 -2
37 8 96 32 133 55 47 29 70 78 58 125 -5 22 -66 97 -66 82 0 -3 -20 3 -45 14
-25 11 -64 22 -87 26 -66 9 -320 12 -380 4 -29 -5 -73 -10 -98 -13 l-45 -5 49
24 c28 12 53 21 58 18 4 -3 8 -1 8 4 0 5 19 17 43 27 23 11 54 27 69 37 14 10
33 18 42 18 9 0 16 5 16 10 0 6 8 13 18 17 47 17 208 135 255 188 51 56 63 71
64 78 1 4 6 23 12 42 11 43 10 52 -13 91 -28 46 -84 59 -181 40 -60 -12 -227
-96 -334 -168 -52 -35 -102 -67 -110 -73 -9 -5 -20 -15 -26 -21 -5 -5 -31 -27
-58 -48 -47 -37 -47 -37 -35 -9 7 15 16 31 20 34 11 7 129 239 123 239 -3 0 2
11 11 25 9 14 13 25 9 25 -4 0 -2 7 5 15 7 8 9 15 5 15 -4 0 -2 7 5 15 7 8 9
15 5 15 -4 0 -2 7 5 15 7 8 10 15 7 15 -3 0 0 21 7 48 9 39 13 123 6 142 -1 3
-2 8 -1 13 0 4 -3 7 -9 7 -5 0 -10 6 -10 14 0 7 -10 20 -22 28 -27 17 -68 29
-68 20z"/>
<path d="M9510 9218 c-25 -5 -83 -21 -130 -35 -47 -15 -87 -27 -90 -28 -106
-32 -497 -231 -585 -298 -5 -4 -41 -28 -79 -53 -86 -58 -107 -75 -178 -146
-32 -31 -58 -65 -58 -76 0 -18 21 -70 41 -102 5 -8 13 -24 18 -35 5 -12 16
-27 25 -34 9 -7 16 -19 16 -26 0 -6 9 -20 20 -30 11 -10 20 -22 20 -26 0 -5 6
-17 14 -26 8 -10 45 -56 82 -103 37 -47 74 -89 81 -93 7 -4 13 -12 13 -18 0
-5 62 -71 138 -147 129 -128 298 -268 367 -302 17 -8 32 -17 35 -20 3 -4 31
-16 63 -28 202 -76 309 59 196 246 -52 86 -171 211 -294 311 -38 31 -72 58
-75 61 -3 3 -35 28 -72 55 -38 27 -68 50 -68 51 0 2 26 -6 58 -17 126 -45 342
-103 342 -92 0 3 7 0 15 -7 8 -7 15 -10 15 -8 0 3 21 1 48 -3 145 -28 308 -29
402 -3 37 10 90 53 102 82 15 37 18 81 7 87 -5 4 -9 13 -9 21 0 23 -65 82
-123 112 -28 14 -54 27 -57 28 -3 0 -12 4 -20 7 -44 19 -99 35 -104 30 -3 -4
-6 0 -6 7 0 7 -3 11 -6 7 -3 -3 -27 1 -52 8 -25 8 -48 12 -50 10 -2 -2 -14 0
-27 5 -13 5 -43 12 -66 15 -46 6 -81 12 -114 19 -25 5 -166 18 -225 21 -61 4
-61 4 -10 21 64 21 83 26 103 27 9 1 17 4 17 8 0 3 19 11 43 18 50 15 226 89
247 105 8 6 37 22 63 36 26 14 61 37 77 52 17 15 30 25 30 22 0 -3 14 10 31
28 51 56 65 90 61 160 -2 32 -55 88 -83 88 -10 0 -20 4 -23 9 -7 11 -128 11
-186 -1z"/>
<path d="M4737 9014 c-2 -2 -167 -16 -197 -16 -8 0 -46 -4 -85 -10 -38 -5 -88
-11 -110 -14 -40 -5 -68 -9 -127 -20 -18 -3 -43 -7 -55 -9 -13 -2 -26 -6 -30
-8 -5 -3 -28 -8 -53 -11 -57 -8 -62 -9 -200 -46 -63 -17 -124 -33 -134 -35
-11 -3 -69 -21 -130 -42 -61 -20 -113 -38 -116 -38 -3 0 -15 -6 -27 -13 -13
-7 -23 -11 -23 -8 0 3 -21 -4 -47 -15 -62 -26 -72 -30 -168 -70 -75 -31 -303
-173 -352 -218 -12 -12 -25 -21 -28 -21 -7 0 -172 -130 -234 -184 -66 -58
-299 -293 -343 -346 -21 -25 -47 -56 -59 -70 -40 -48 -159 -219 -159 -229 0
-6 -3 -11 -7 -11 -5 0 -13 -10 -19 -23 -6 -12 -37 -71 -67 -131 -31 -60 -54
-113 -51 -118 3 -4 1 -8 -5 -8 -5 0 -13 -15 -16 -32 -4 -18 -11 -37 -15 -43
-9 -13 -27 -78 -49 -185 -24 -113 -17 -260 15 -322 8 -15 14 -30 14 -33 0 -3
7 -21 15 -41 8 -20 15 -38 15 -41 0 -7 45 -68 53 -71 4 -2 5 -7 3 -11 -8 -12
127 -136 190 -175 61 -37 185 -90 240 -101 55 -12 89 -18 112 -19 12 0 22 -4
22 -7 0 -5 43 -9 150 -13 30 -2 75 4 100 11 25 8 55 16 68 19 52 10 184 72
227 106 37 30 65 59 65 68 0 5 4 10 10 10 5 0 16 13 25 30 8 16 28 42 43 58
15 15 47 54 71 85 24 32 51 62 60 67 9 5 12 10 8 10 -10 0 213 221 277 275 27
22 55 48 64 58 9 9 20 17 24 17 5 0 16 8 27 18 42 39 138 106 317 219 31 20
237 119 264 128 14 4 30 11 35 15 11 8 107 41 115 39 3 -1 22 6 43 14 20 9 37
14 37 12 0 -3 11 0 26 5 14 6 37 12 52 15 15 3 38 7 52 10 14 3 36 7 50 9 14
3 45 8 70 12 52 9 390 12 390 4 0 -4 10 -6 23 -6 21 -1 122 -17 177 -30 14 -3
39 -8 55 -11 17 -3 32 -8 35 -11 3 -4 16 -9 30 -10 14 -2 27 -8 28 -13 2 -5 7
-7 12 -4 4 3 27 -2 50 -10 111 -39 139 3 117 175 -3 30 -9 66 -12 80 -4 14 -8
52 -10 85 -2 33 -4 60 -5 60 -1 0 -3 17 -4 38 -1 20 1 37 4 37 3 0 5 22 4 49
0 40 19 166 26 166 1 0 3 8 5 19 18 94 124 245 220 312 71 50 196 106 267 119
107 21 125 27 152 56 30 32 49 109 26 109 -6 0 -8 5 -5 10 3 6 -1 10 -9 10 -9
0 -16 4 -16 9 0 7 -79 44 -100 46 -3 1 -32 9 -65 19 -52 16 -165 46 -230 62
-11 3 -24 6 -30 8 -30 9 -63 16 -85 20 -14 2 -43 9 -65 14 -22 6 -69 16 -105
22 -36 5 -76 12 -90 14 -84 15 -156 24 -230 30 -25 2 -74 7 -110 11 -60 7
-497 15 -503 9z"/>
<path d="M6795 8463 c-98 -10 -337 -68 -343 -85 -2 -4 -10 -8 -18 -8 -38 0
-225 -113 -286 -174 -64 -62 -139 -216 -154 -313 -3 -21 -7 -49 -9 -61 -15
-87 -4 -193 30 -302 23 -75 136 -204 187 -214 7 -2 25 -8 41 -14 15 -7 39 -14
52 -16 14 -3 33 -7 43 -10 9 -3 31 -8 47 -11 38 -8 60 -13 60 -15 0 -1 11 -4
25 -6 14 -3 52 -14 85 -26 169 -59 287 -131 405 -248 96 -96 111 -113 201
-242 81 -115 143 -188 159 -188 5 0 10 -4 10 -9 0 -8 55 -36 72 -36 3 0 9 -3
12 -6 9 -9 75 0 98 12 66 36 123 104 193 234 21 39 49 85 62 103 13 17 21 32
17 32 -3 0 23 29 59 65 57 56 119 96 177 112 24 7 280 11 280 4 0 -3 16 -6 36
-5 20 1 57 -3 82 -8 153 -28 199 -27 229 8 20 24 28 50 24 77 -1 4 -3 24 -5
45 -2 20 -11 58 -20 85 -18 49 -95 208 -106 217 -4 3 -9 12 -12 20 -3 8 -31
50 -62 93 -31 43 -56 81 -56 83 0 3 -6 11 -12 18 -7 7 -33 37 -58 67 -65 78
-226 239 -293 292 -71 57 -219 147 -241 147 -9 0 -16 4 -16 9 0 5 -10 13 -21
16 -12 4 -60 25 -108 47 -92 42 -124 56 -156 68 -11 4 -36 14 -55 22 -19 9
-51 19 -70 23 -19 4 -41 12 -47 17 -7 6 -13 7 -13 4 0 -4 -9 -2 -21 4 -90 48
-357 87 -504 73z"/>
<path d="M6415 6678 c-45 -24 -125 -82 -125 -90 0 -4 -4 -8 -10 -8 -5 0 -22
-12 -38 -27 -16 -16 -53 -51 -83 -79 -88 -84 -170 -173 -257 -279 -45 -55 -88
-108 -97 -117 -8 -10 -15 -22 -15 -28 0 -5 -4 -10 -8 -10 -5 0 -17 -16 -28
-35 -10 -19 -22 -35 -26 -35 -5 0 -8 -9 -8 -20 0 -11 -4 -20 -9 -20 -4 0 -23
-28 -41 -62 -18 -35 -38 -66 -44 -70 -6 -4 -8 -8 -3 -8 4 0 0 -15 -9 -32 -44
-85 -66 -216 -43 -260 17 -34 61 -78 71 -72 4 3 8 1 8 -4 0 -15 83 -4 124 16
64 32 157 120 242 231 43 57 81 108 83 115 2 6 19 32 38 58 18 26 33 51 33 54
0 3 9 19 21 35 11 16 17 29 12 29 -4 0 -3 4 3 8 6 4 21 25 33 47 12 22 20 33
18 25 -5 -17 -24 -110 -31 -150 -3 -14 -5 -25 -6 -25 -2 0 -10 -58 -13 -97 -1
-21 -4 -38 -7 -38 -3 0 -5 -19 -4 -42 0 -24 -2 -47 -5 -52 -2 -6 -5 -39 -6
-75 0 -37 -4 -72 -8 -78 -5 -7 -5 -13 0 -13 4 0 8 -28 9 -63 2 -147 24 -236
75 -301 25 -32 72 -54 109 -52 32 2 91 38 108 67 71 115 100 227 115 449 1 14
7 28 12 32 7 5 7 8 0 8 -6 0 -9 17 -8 38 5 63 4 122 -2 132 -4 6 -1 10 5 10 6
0 8 10 5 23 -3 12 -7 63 -9 112 -4 89 -4 90 12 55 130 -285 226 -443 330 -546
59 -58 138 -97 182 -89 115 20 144 137 81 324 -28 84 -103 249 -124 276 -4 6
-30 47 -57 93 -27 45 -81 128 -122 183 -40 55 -77 108 -83 117 -5 9 -15 21
-21 27 -6 5 -33 37 -60 70 -59 72 -213 225 -226 225 -5 0 -16 7 -24 15 -18 18
-41 19 -69 3z"/>
<path d="M1484 6617 c-10 -6 -22 -15 -26 -21 -5 -7 -8 -7 -8 -1 0 6 -18 -19
-40 -55 -22 -36 -40 -69 -40 -73 0 -4 -8 -27 -19 -50 -41 -93 -149 -385 -155
-422 -1 -5 -5 -16 -9 -22 -5 -7 -5 -17 -2 -23 3 -5 1 -10 -6 -10 -7 0 -10 -3
-6 -6 3 -4 0 -22 -8 -40 -8 -19 -14 -37 -15 -39 0 -3 0 -6 -1 -7 -1 -4 -7 -30
-12 -53 -3 -11 -15 -58 -27 -105 -12 -47 -23 -92 -25 -100 -31 -139 -55 -253
-59 -285 -4 -23 -9 -52 -11 -65 -3 -14 -8 -41 -10 -60 -2 -19 -7 -51 -11 -70
-6 -36 -11 -75 -18 -145 -3 -22 -8 -65 -11 -95 -19 -156 -38 -660 -24 -660 3
0 5 -24 5 -52 0 -56 11 -207 20 -273 2 -22 6 -58 8 -80 2 -22 7 -56 11 -75 4
-19 9 -46 10 -60 5 -44 16 -103 31 -165 8 -33 17 -71 19 -85 2 -14 11 -52 20
-85 9 -33 18 -69 20 -80 3 -11 18 -62 35 -113 16 -51 30 -99 30 -107 0 -8 4
-15 8 -15 5 0 9 -6 9 -12 1 -19 47 -142 55 -148 4 -3 9 -15 11 -25 1 -11 7
-27 12 -35 5 -8 10 -20 11 -25 3 -18 139 -290 147 -293 4 -2 7 -8 7 -13 0 -5
17 -38 38 -73 36 -62 39 -64 87 -72 114 -17 205 2 264 56 71 65 103 180 76
270 -15 47 -60 218 -69 260 -32 147 -40 183 -51 265 -4 22 -8 51 -11 65 -2 14
-7 48 -10 75 -3 28 -7 66 -10 85 -8 60 -16 200 -18 302 0 54 -5 98 -9 98 -5 0
-5 4 -2 10 3 5 8 78 11 162 4 164 7 202 19 288 4 30 9 66 11 80 1 14 5 37 8
51 3 14 7 39 9 55 2 17 7 35 11 42 4 7 5 12 2 12 -2 0 0 15 5 33 6 17 12 41
13 52 8 55 85 299 106 337 6 10 10 22 10 28 0 36 207 419 231 428 5 2 9 9 9
14 0 10 66 104 95 134 5 7 24 29 42 50 17 22 57 66 88 99 116 122 176 210 169
248 -3 23 -30 53 -47 55 -6 0 -48 3 -92 6 -102 7 -135 12 -215 31 -115 26
-158 40 -200 60 -14 6 -47 23 -75 36 -27 13 -52 26 -55 29 -3 3 -25 18 -50 34
-25 16 -66 52 -93 79 -47 49 -117 157 -117 181 0 6 -4 16 -9 22 -6 5 -12 23
-15 39 -2 17 -5 31 -6 33 -5 4 -8 23 -9 50 -1 35 -37 56 -67 39z"/>
<path d="M8680 6561 c0 -3 -14 -6 -31 -5 -60 2 -203 -29 -304 -66 -33 -12 -70
-24 -82 -27 -12 -3 -28 -11 -34 -19 -6 -8 -17 -14 -23 -14 -15 0 -117 -66
-128 -82 -4 -7 -8 -9 -8 -4 0 16 -119 -113 -154 -167 -45 -70 -82 -159 -103
-247 -21 -93 -21 -403 1 -439 3 -5 8 -26 11 -47 14 -107 99 -363 143 -431 7
-12 13 -25 12 -28 -6 -23 170 -307 254 -410 87 -107 273 -275 305 -275 5 0 11
-4 13 -9 4 -12 103 -61 123 -61 8 0 15 -5 15 -12 0 -6 3 -9 6 -5 3 3 16 2 29
-3 36 -14 105 -23 165 -21 48 1 95 6 95 11 0 1 7 3 16 5 9 1 45 17 80 33 77
37 171 119 233 205 25 34 50 67 54 72 10 13 106 206 109 220 1 5 14 44 28 85
15 41 28 84 31 95 2 11 12 49 22 85 10 36 17 76 17 90 0 14 3 27 6 30 6 5 16
73 26 190 8 89 7 343 -1 410 -4 30 -9 69 -11 85 -2 17 -4 32 -5 35 -1 3 -2 8
-1 12 0 3 -13 54 -29 112 -80 286 -218 455 -445 547 -35 14 -29 12 -80 26 -22
7 -58 14 -80 18 -53 9 -275 13 -275 6z m540 -1285 c61 1 113 -37 149 -111 38
-78 8 -177 -70 -230 -36 -24 -53 -29 -99 -29 -119 2 -197 85 -187 202 5 76 46
130 117 159 30 12 57 19 60 15 3 -4 16 -7 30 -6z m-702 -124 c80 -51 110 -159
67 -243 -10 -19 -27 -42 -39 -51 -12 -10 -26 -22 -33 -28 -17 -14 -91 -29
-119 -24 -129 23 -196 142 -148 263 42 105 175 146 272 83z"/>
<path d="M8123 3508 c-27 -7 -50 -36 -46 -58 1 -3 4 -77 8 -165 9 -230 20
-384 30 -455 7 -41 16 -113 20 -145 1 -16 6 -48 10 -70 3 -22 8 -50 10 -62 2
-13 6 -26 9 -31 2 -4 7 -28 10 -53 3 -25 10 -59 16 -75 6 -16 11 -30 11 -31
-1 -2 5 -23 11 -48 16 -59 46 -87 101 -92 l44 -5 28 69 c15 37 28 75 30 83 2
8 22 67 45 130 49 136 120 365 125 400 2 14 8 36 13 50 5 14 10 28 10 33 0 10
13 88 19 112 2 11 7 54 9 95 5 72 4 77 -26 123 -18 26 -49 60 -69 75 -20 15
-38 30 -41 33 -9 10 -118 59 -133 59 -7 0 -17 3 -21 8 -4 4 -11 7 -14 8 -4 0
-32 4 -62 8 -82 13 -112 13 -147 4z"/>
<path d="M8822 3432 c-37 -10 -59 -24 -74 -44 -20 -29 -20 -31 -4 -59 26 -44
30 -65 31 -184 1 -60 3 -116 3 -122 4 -27 48 -12 92 32 25 24 51 44 58 45 6 0
12 5 12 11 0 5 4 8 9 4 5 -3 12 -1 15 4 3 5 23 12 43 16 21 5 45 10 53 12 8 3
25 4 37 4 27 -1 42 43 36 103 -5 49 -15 67 -60 117 -34 38 -73 55 -148 66 -16
2 -34 5 -40 7 -5 2 -34 -4 -63 -12z"/>
<path d="M7759 3309 c-13 -15 -34 -40 -46 -54 -13 -14 -23 -29 -24 -33 0 -4
-2 -16 -5 -27 -9 -42 -9 -135 -1 -135 5 0 4 -6 -2 -13 -6 -8 -9 -16 -6 -19 3
-2 7 -24 10 -49 13 -109 54 -260 91 -331 8 -16 12 -28 9 -28 -6 0 121 -246
135 -260 13 -13 50 -70 50 -77 0 -4 21 -18 48 -29 85 -38 93 -17 40 102 -22
49 -42 96 -43 104 -2 8 -4 16 -5 18 -2 1 -3 5 -5 10 -1 4 -5 16 -9 27 -22 58
-28 75 -28 79 0 3 -6 29 -14 58 -37 133 -43 155 -48 193 -4 23 -9 52 -12 65
-5 26 -7 37 -18 105 -9 63 -15 114 -21 190 -6 68 -21 124 -34 126 -3 0 -13 2
-22 4 -8 1 -26 -10 -40 -26z"/>
<path d="M8981 2961 c-84 -81 -176 -192 -268 -324 -32 -45 -61 -86 -65 -92
-25 -32 -98 -149 -98 -156 0 -5 -4 -9 -10 -9 -5 0 -10 -4 -10 -9 0 -6 -27 -52
-60 -104 -39 -61 -58 -100 -54 -111 3 -9 26 -28 49 -42 l43 -25 63 22 c35 12
79 30 97 40 17 10 32 16 32 12 0 -3 8 1 18 9 9 9 28 19 42 23 14 4 27 10 30
14 3 3 36 22 74 41 115 59 536 331 544 352 2 4 10 8 18 8 8 0 14 5 14 10 0 6
7 10 15 10 7 0 18 6 22 13 4 6 27 25 50 41 23 15 45 37 48 47 23 70 -175 247
-328 293 -26 8 -78 14 -117 14 l-71 0 -78 -77z"/>
<path d="M9483 2379 c-13 -12 -203 -112 -243 -129 -14 -5 -32 -14 -40 -19 -62
-39 -426 -169 -453 -163 -4 1 -16 -2 -25 -7 -9 -5 -33 -12 -52 -15 -19 -3 -62
-10 -94 -16 -81 -13 -95 -28 -61 -64 14 -15 25 -23 25 -19 0 4 5 1 10 -7 7
-12 30 -15 102 -15 351 2 709 118 864 282 36 39 65 155 41 170 -15 10 -64 12
-74 2z"/>
<path d="M2164 2205 c-3 -14 -10 -25 -15 -25 -5 0 -9 -7 -9 -15 0 -8 -4 -15
-10 -15 -5 0 -10 -6 -10 -14 0 -30 -129 -147 -198 -179 -81 -38 -80 -38 -162
-41 -71 -2 -90 -9 -90 -31 0 -19 32 -88 45 -97 6 -4 6 -8 2 -8 -4 0 -3 -6 3
-12 6 -7 37 -50 69 -96 74 -106 203 -242 229 -242 5 0 15 -7 22 -15 16 -19
206 -145 219 -145 6 0 11 -3 11 -8 0 -4 17 -16 38 -27 20 -10 49 -27 64 -37
14 -10 33 -18 42 -18 9 0 16 -4 16 -9 0 -15 586 -301 616 -301 8 0 14 -4 14
-10 0 -5 6 -10 13 -10 7 0 33 -10 58 -22 24 -12 46 -22 49 -23 7 0 90 -34 112
-46 10 -5 25 -9 33 -9 8 0 15 -4 15 -10 0 -5 6 -10 14 -10 12 0 116 -41 231
-91 11 -4 103 -40 205 -79 102 -39 197 -76 212 -82 15 -5 30 -10 33 -9 3 1 18
-5 34 -13 16 -9 31 -12 35 -9 3 4 6 1 6 -5 0 -7 8 -12 19 -12 10 0 40 -9 67
-19 112 -44 110 -43 160 -30 130 35 170 162 99 316 -22 48 -27 53 -57 54 -58
1 -132 7 -158 13 -14 3 -41 7 -60 10 -33 5 -64 12 -157 35 -56 14 -144 47
-221 82 -35 16 -67 29 -71 29 -5 0 -30 12 -57 26 -27 15 -78 42 -114 61 -36
19 -73 42 -82 51 -10 8 -18 12 -18 9 0 -13 -262 169 -415 288 -10 8 -23 15
-27 15 -4 0 -8 7 -8 15 0 8 -5 15 -11 15 -7 0 -31 17 -54 38 -23 20 -70 62
-104 92 -209 185 -440 434 -486 524 -21 39 -44 78 -51 87 -8 8 -14 19 -14 23
0 16 -65 61 -92 63 -22 2 -29 -2 -34 -22z"/>
<path d="M8107 2146 c-29 -13 -60 -50 -64 -78 -2 -10 -3 -21 -4 -25 -6 -39 37
-113 67 -113 7 0 14 -4 16 -8 5 -13 90 -68 118 -77 46 -16 98 -4 126 26 19 21
46 89 35 89 -3 0 -7 11 -7 25 -2 32 -51 80 -132 129 -69 42 -111 50 -155 32z"/>
<path d="M7890 1793 c-59 -72 -312 -324 -391 -388 -33 -27 -66 -55 -73 -60
-117 -104 -403 -292 -559 -370 -37 -18 -73 -38 -80 -43 -18 -14 -259 -115
-274 -115 -7 0 -13 -4 -13 -9 0 -5 -4 -7 -8 -4 -5 3 -20 -1 -35 -9 -15 -8 -27
-12 -27 -10 0 3 -24 -4 -52 -14 -61 -22 -242 -67 -308 -76 -24 -4 -47 -8 -50
-10 -5 -3 -19 -5 -160 -21 -118 -14 -500 -7 -580 11 -14 3 -45 8 -70 11 -25 3
-61 9 -80 14 -19 5 -46 11 -60 14 -40 7 -98 21 -200 49 -179 49 -209 42 -158
-37 24 -36 32 -60 32 -95 1 -77 -17 -145 -56 -219 -15 -30 -28 -58 -28 -62 0
-9 41 -20 136 -36 144 -24 646 -23 764 1 14 3 43 7 65 10 101 11 301 48 378
70 26 8 47 11 47 8 0 -3 7 0 15 7 8 7 15 9 15 6 0 -4 8 -2 18 3 11 6 32 13 48
16 46 10 48 10 59 16 8 5 39 15 75 24 21 5 101 34 185 67 105 41 125 49 216
92 31 14 61 26 67 26 6 0 12 3 14 8 2 4 30 21 64 38 84 43 148 78 154 85 5 5
39 21 50 23 3 1 16 9 30 19 14 10 68 46 120 79 52 34 97 65 98 70 2 4 8 8 13
8 12 0 218 155 235 176 6 8 16 14 22 14 6 0 17 8 24 18 7 10 27 28 43 40 80
60 385 355 385 373 0 5 7 9 15 9 8 0 15 4 15 8 0 4 16 25 35 46 40 44 44 61
15 63 -39 3 -92 37 -117 75 -14 21 -26 38 -27 38 0 -1 -21 -26 -46 -57z"/>
</g>
</svg>
