<?xml version="1.0" encoding="utf-8"?>
<!-- Generator: Adobe Illustrator 16.0.0, SVG Export Plug-In . SVG Version: 6.00 Build 0)  -->
<!DOCTYPE svg PUBLIC "-//W3C//DTD SVG 1.1//EN" "http://www.w3.org/Graphics/SVG/1.1/DTD/svg11.dtd">
<svg version="1.1" id="Layer_1" xmlns="http://www.w3.org/2000/svg" xmlns:xlink="http://www.w3.org/1999/xlink" x="0px" y="0px"
	 width="64px" height="62.667px" viewBox="0 0 64 62.667" enable-background="new 0 0 64 62.667" xml:space="preserve">
<g>
	<path fill="#FFFFFF" d="M63.484,59.509c0,1.578-1.279,2.857-2.857,2.857H3.714c-1.578,0-2.857-1.279-2.857-2.857V3.589
		c0-1.578,1.279-2.857,2.857-2.857h56.913c1.578,0,2.857,1.279,2.857,2.857V59.509z"/>
	<g>
		<linearGradient id="SVGID_1_" gradientUnits="userSpaceOnUse" x1="32.1704" y1="1.0479" x2="32.1704" y2="62.6821">
			<stop  offset="0" style="stop-color:#4D69A2"/>
			<stop  offset="1" style="stop-color:#3C5A99"/>
		</linearGradient>
		<path fill="url(#SVGID_1_)" d="M63.484,59.509V3.589c0-1.578-1.279-2.857-2.857-2.857h-5.096H8.812H3.714
			c-1.574,0-2.849,1.272-2.855,2.843v50.837l-0.001,5.102c0.002,1.574,1.281,2.852,2.857,2.852H35.32V37.622h-8.158v-8.525h8.158
			v-9.259c0-5.548,5.031-9.276,9.09-9.276h9.133v7.756H49.33c-2.076,0-4.844,1.686-4.844,3.758v7.02h8.229v8.525h-8.229v24.745
			h11.045h5.096C62.205,62.366,63.484,61.087,63.484,59.509z"/>
		<path fill="#3D568E" d="M60.627,62.723H44.129V37.265h8.229v-7.811h-8.229v-7.377c0-2.216,2.859-4.115,5.201-4.115h3.855v-7.042
			H44.41c-3.648,0-8.732,3.393-8.732,8.919v9.616h-8.159v7.811h8.159v25.458H3.714c-1.769,0-3.211-1.439-3.214-3.208L0.501,3.575
			C0.509,1.81,1.95,0.375,3.714,0.375h56.913c1.771,0,3.215,1.442,3.215,3.214v55.92C63.842,61.28,62.398,62.723,60.627,62.723z
			 M44.844,62.009h15.783c1.379,0,2.5-1.122,2.5-2.5V3.589c0-1.378-1.121-2.5-2.5-2.5H3.714c-1.371,0-2.492,1.116-2.499,2.487
			L1.214,59.515c0.002,1.375,1.124,2.494,2.5,2.494h31.249v-24.03h-8.158v-9.239h8.158v-8.902c0-5.513,4.988-9.633,9.447-9.633h9.49
			v8.471h-4.57c-1.979,0-4.486,1.602-4.486,3.401v6.663h8.227v9.239h-8.227V62.009z"/>
	</g>
</g>
</svg>
