<?xml version="1.0" encoding="utf-8"?>
<!-- Generator: Adobe Illustrator 16.0.0, SVG Export Plug-In . SVG Version: 6.00 Build 0)  -->
<!DOCTYPE svg PUBLIC "-//W3C//DTD SVG 1.1//EN" "http://www.w3.org/Graphics/SVG/1.1/DTD/svg11.dtd">
<svg version="1.1" id="Layer_1" xmlns="http://www.w3.org/2000/svg" xmlns:xlink="http://www.w3.org/1999/xlink" x="0px" y="0px"
	 width="729.412px" height="48.706px" viewBox="0 0 729.412 48.706" enable-background="new 0 0 729.412 48.706"
	 xml:space="preserve">
<g>
	<g>
		<path fill="#87898E" d="M18.649,22.867L4.394,3.896c-0.901-1.06,0.371-2.119,1.325-1.06L19.55,21.384L33.328,2.836
			c0.954-1.06,2.279,0,1.325,1.06L20.451,22.867v12.931c0,0.689-0.477,1.007-0.901,1.007c-0.477,0-0.901-0.317-0.901-1.007V22.867z"
			/>
		<path fill="#87898E" d="M40.909,25.518c0,6.677,6.412,11.182,12.666,9.539c5.458-1.378,9.115-6.519,9.274-12.083V10.309
			c0-0.583,0.318-0.954,0.901-0.954s0.954,0.371,0.954,0.954v25.596c0,0.477-0.371,0.9-0.954,0.9s-0.901-0.371-0.901-0.953V28.22
			c-1.219,4.452-4.981,7.632-8.797,8.639c-6.836,1.483-14.997-2.544-14.997-11.341V10.309c0-0.583,0.318-0.954,0.901-0.954
			c0.583,0,0.954,0.371,0.954,0.954V25.518z"/>
		<path fill="#87898E" d="M75.253,36.169c0,0.478-0.424,0.901-0.901,0.901c-0.583,0-0.954-0.424-0.954-0.901V2.889
			c0-0.477,0.371-0.9,0.954-0.9c0.477,0,0.901,0.424,0.901,0.9V36.169z"/>
		<path fill="#87898E" d="M85.694,6.016c0,1.166-1.961,1.166-1.961,0V3.048c0-1.166,1.961-1.166,1.961,0V6.016z M83.787,10.414
			c0-1.271,1.854-1.271,1.854-0.053v25.808c0,1.272-1.854,1.272-1.854,0V10.414z"/>
		<path fill="#87898E" d="M106.15,9.248c2.279,0.053,4.452,0.583,6.359,1.696c1.749,1.166,3.074,2.809,3.869,4.928v-5.352
			c0-0.583,0.318-0.954,0.901-0.954s0.954,0.371,0.954,0.954v25.384c0,0.583-0.371,0.954-0.954,0.954s-0.901-0.371-0.901-0.954
			v-5.353c-0.795,2.12-2.12,3.763-3.869,4.929c-3.339,1.961-7.578,2.438-11.605,0.795c-5.724-2.332-8.585-7.578-8.426-13.778
			c0.159-5.353,3.021-10.281,8.055-12.242C102.282,9.514,104.137,9.195,106.15,9.248z M116.378,25.518v-4.61
			c-0.212-3.869-2.014-7.049-5.512-8.744c-1.537-0.689-3.073-1.007-4.716-1.061c-4.504-0.053-9.062,2.332-10.864,6.73
			c-0.583,1.378-0.901,3.074-0.954,4.61c-0.159,4.081,1.219,7.844,4.663,10.599c1.855,1.432,4.134,2.227,6.519,2.385
			c1.854,0.054,3.604-0.37,5.352-1.165C114.364,32.565,116.166,29.386,116.378,25.518z"/>
		<path fill="#87898E" d="M158.462,27.107l-4.716,9.38c-0.53,1.007-2.067,0.212-1.537-0.849l16.852-33.227
			c0.159-0.318,0.477-0.477,0.795-0.477c0.318,0,0.583,0.158,0.742,0.477l16.905,33.227c0.53,1.061-1.007,1.855-1.537,0.849
			l-4.716-9.38H158.462z M169.855,4.532l-10.599,20.985h21.145L169.855,4.532z"/>
		<path fill="#87898E" d="M194.661,16.297c1.166-4.028,5.193-6.783,9.592-6.783c0.583,0,0.954,0.317,0.954,0.9
			s-0.371,0.901-0.954,0.901c-6.783,0-9.592,5.776-9.592,12.188v12.241c0,0.583-0.424,0.954-0.901,0.954
			c-0.583,0-0.954-0.371-0.954-0.954V10.414c0-0.477,0.371-0.9,0.954-0.9c0.477,0,0.901,0.424,0.901,0.9V16.297z"/>
		<path fill="#87898E" d="M222.271,9.619c1.378,0,1.378,1.696,0,1.696h-7.366v16.269c0,3.815,0.636,7.737,5.564,7.737
			c1.007,0,2.438-0.371,3.18-0.795c1.113-0.53,2.12,0.848,0.689,1.59c-1.325,0.688-2.543,0.9-3.869,0.9
			c-5.935,0-7.366-4.504-7.366-9.433V11.315h-4.929c-1.431,0-1.431-1.696,0-1.696h4.929V2.836c0-1.166,1.802-1.113,1.802,0v6.783
			H222.271z"/>
		<path fill="#87898E" d="M232.926,6.016c0,1.166-1.961,1.166-1.961,0V3.048c0-1.166,1.961-1.166,1.961,0V6.016z M231.018,10.414
			c0-1.271,1.854-1.271,1.854-0.053v25.808c0,1.272-1.854,1.272-1.854,0V10.414z"/>
		<path fill="#87898E" d="M240.822,30.445c0.689,3.286,5.724,4.823,10.387,4.823c3.18,0,9.963-1.325,9.963-6.147
			c0-9.327-21.728-0.795-21.728-12.242c0-5.087,6.307-7.736,11.235-7.736c4.027,0,9.645,0.688,11.447,5.405
			c0.371,1.483-1.378,1.802-1.749,0.688c-1.484-3.975-6.783-4.346-9.698-4.346c-3.815,0-9.433,1.644-9.433,5.988
			c0,8.956,21.781,0.689,21.781,12.242c0,6.359-7.525,7.843-11.818,7.843c-4.345,0-11.076-1.06-12.083-6.2
			C238.703,29.386,240.664,29.015,240.822,30.445z"/>
		<path fill="#87898E" d="M281.313,9.619c1.378,0,1.378,1.696,0,1.696h-7.366v16.269c0,3.815,0.636,7.737,5.564,7.737
			c1.007,0,2.438-0.371,3.18-0.795c1.113-0.53,2.12,0.848,0.689,1.59c-1.325,0.688-2.543,0.9-3.869,0.9
			c-5.935,0-7.366-4.504-7.366-9.433V11.315h-4.929c-1.431,0-1.431-1.696,0-1.696h4.929V2.836c0-1.166,1.802-1.113,1.802,0v6.783
			H281.313z"/>
		<path fill="#87898E" d="M318.891,36.593c-0.794,0-1.431-0.636-1.431-1.378V4.214c0-0.742,0.636-1.325,1.431-1.325
			c4.664,0,7.578,0,12.295,0c20.773,0,20.773,33.704,0,33.704C326.469,36.593,323.554,36.593,318.891,36.593z M319.209,34.95
			c4.557,0,7.366,0,11.977,0c18.442,0,18.442-30.472,0-30.472c-4.61,0-7.419,0-11.977,0V34.95z"/>
		<path fill="#87898E" d="M379.573,23.026c0.053,0.742-0.212,1.749-1.643,1.749h-23.848c0.265,2.278,1.113,4.451,2.703,6.307
			c2.226,2.649,5.564,4.027,9.009,4.08c2.915,0.053,5.882-0.848,8.32-2.702c0.954-0.742,2.226,0.317,1.219,1.324
			c-2.385,2.226-5.882,3.232-9.38,3.18c-4.133-0.053-8.214-1.59-10.652-4.717c-2.226-2.861-3.392-6.146-3.179-10.121
			c0.265-5.724,3.974-10.864,9.698-12.454c2.438-0.636,5.352-0.688,8.002,0C375.757,11.262,379.467,16.19,379.573,23.026z
			 M354.03,23.026h23.741c-0.106-5.829-3.233-10.228-8.532-11.658c-2.12-0.53-4.61-0.53-6.783,0.053
			C357.156,12.852,354.083,17.728,354.03,23.026z"/>
		<path fill="#87898E" d="M385.988,30.445c0.688,3.286,5.724,4.823,10.387,4.823c3.18,0,9.963-1.325,9.963-6.147
			c0-9.327-21.728-0.795-21.728-12.242c0-5.087,6.307-7.736,11.234-7.736c4.027,0,9.646,0.688,11.447,5.405
			c0.371,1.483-1.378,1.802-1.749,0.688c-1.483-3.975-6.783-4.346-9.698-4.346c-3.814,0-9.433,1.644-9.433,5.988
			c0,8.956,21.78,0.689,21.78,12.242c0,6.359-7.525,7.843-11.817,7.843c-4.345,0-11.075-1.06-12.083-6.2
			C383.868,29.386,385.829,29.015,385.988,30.445z"/>
		<path fill="#87898E" d="M416.727,6.016c0,1.166-1.961,1.166-1.961,0V3.048c0-1.166,1.961-1.166,1.961,0V6.016z M414.82,10.414
			c0-1.271,1.854-1.271,1.854-0.053v25.808c0,1.272-1.854,1.272-1.854,0V10.414z"/>
		<path fill="#87898E" d="M449.425,35.745c0,7.631-5.724,11.605-12.931,11.605c-3.975,0-7.207-0.795-10.068-3.497
			c-1.008-1.007,0.265-2.067,1.219-1.325c3.073,2.332,5.299,3.021,8.85,3.021c5.83,0,11.076-3.127,11.076-9.804v-4.929
			c-1.749,4.134-5.83,6.254-10.229,6.359c-2.014,0.053-3.868-0.265-5.617-1.007c-5.034-1.961-7.896-6.889-8.055-12.241
			c-0.159-6.2,2.703-11.447,8.426-13.778c4.027-1.644,8.268-1.166,11.605,0.795c1.749,1.166,3.074,2.597,3.869,4.716v-5.246
			c0-0.583,0.317-0.954,0.9-0.954s0.954,0.371,0.954,0.954V35.745z M436.707,10.997c-2.385,0.159-4.663,0.954-6.519,2.385
			c-3.444,2.756-4.822,6.519-4.663,10.599c0.054,1.537,0.371,3.232,0.954,4.61c1.802,4.398,6.359,6.783,10.863,6.73
			c5.936-0.212,9.857-4.346,10.229-9.804v-4.61c-0.213-3.869-2.014-7.049-5.512-8.744C440.31,11.368,438.561,10.944,436.707,10.997z
			"/>
		<path fill="#87898E" d="M481.808,20.854c0-6.889-6.412-11.234-12.665-9.592c-5.459,1.378-9.115,6.519-9.274,12.083V36.01
			c0,0.583-0.317,0.954-0.901,0.954c-0.582,0-0.953-0.371-0.953-0.954V10.414c0-0.477,0.371-0.9,0.953-0.9
			c0.584,0,0.901,0.37,0.901,0.953v7.313c1.219-4.451,4.876-7.26,8.69-8.267c7.049-1.803,15.104,2.384,15.104,11.34V36.01
			c0,0.583-0.318,0.954-0.9,0.954c-0.583,0-0.954-0.371-0.954-0.954V20.854z"/>
		<path fill="#87898E" d="M517.954,23.026c0.053,0.742-0.212,1.749-1.643,1.749h-23.848c0.266,2.278,1.113,4.451,2.703,6.307
			c2.226,2.649,5.564,4.027,9.009,4.08c2.915,0.053,5.882-0.848,8.319-2.702c0.955-0.742,2.227,0.317,1.219,1.324
			c-2.385,2.226-5.882,3.232-9.379,3.18c-4.134-0.053-8.215-1.59-10.652-4.717c-2.226-2.861-3.392-6.146-3.18-10.121
			c0.266-5.724,3.975-10.864,9.698-12.454c2.438-0.636,5.353-0.688,8.002,0C514.137,11.262,517.848,16.19,517.954,23.026z
			 M492.411,23.026h23.741c-0.106-5.829-3.233-10.228-8.532-11.658c-2.119-0.53-4.61-0.53-6.783,0.053
			C495.538,12.852,492.463,17.728,492.411,23.026z"/>
		<path fill="#87898E" d="M526.913,16.297c1.166-4.028,5.193-6.783,9.592-6.783c0.583,0,0.953,0.317,0.953,0.9
			s-0.37,0.901-0.953,0.901c-6.783,0-9.592,5.776-9.592,12.188v12.241c0,0.583-0.424,0.954-0.9,0.954
			c-0.584,0-0.955-0.371-0.955-0.954V10.414c0-0.477,0.371-0.9,0.955-0.9c0.477,0,0.9,0.424,0.9,0.9V16.297z"/>
		<path fill="#87898E" d="M584.204,33.891l13.354-27.027c0.317-0.688,1.431-0.795,1.854-0.053l13.354,27.08l13.566-31.055
			c0.478-1.113,2.173-0.424,1.696,0.689c-4.822,10.969-9.698,21.833-14.468,32.855c-0.317,0.742-1.325,0.689-1.696,0L598.459,9.036
			l-13.408,27.345c-0.318,0.689-1.377,0.742-1.695,0c-4.77-11.022-9.592-21.887-14.414-32.855c-0.478-1.113,1.166-1.803,1.643-0.689
			L584.204,33.891z"/>
		<path fill="#87898E" d="M635.721,16.297c1.165-4.028,5.193-6.783,9.592-6.783c0.582,0,0.953,0.317,0.953,0.9
			s-0.371,0.901-0.953,0.901c-6.783,0-9.592,5.776-9.592,12.188v12.241c0,0.583-0.425,0.954-0.901,0.954
			c-0.583,0-0.954-0.371-0.954-0.954V10.414c0-0.477,0.371-0.9,0.954-0.9c0.477,0,0.901,0.424,0.901,0.9V16.297z"/>
		<path fill="#87898E" d="M653.581,6.016c0,1.166-1.961,1.166-1.961,0V3.048c0-1.166,1.961-1.166,1.961,0V6.016z M651.673,10.414
			c0-1.271,1.854-1.271,1.854-0.053v25.808c0,1.272-1.854,1.272-1.854,0V10.414z"/>
		<path fill="#87898E" d="M673.772,9.619c1.378,0,1.378,1.696,0,1.696h-7.365v16.269c0,3.815,0.635,7.737,5.563,7.737
			c1.007,0,2.438-0.371,3.18-0.795c1.112-0.53,2.12,0.848,0.688,1.59c-1.324,0.688-2.543,0.9-3.868,0.9
			c-5.935,0-7.366-4.504-7.366-9.433V11.315h-4.928c-1.432,0-1.432-1.696,0-1.696h4.928V2.836c0-1.166,1.803-1.113,1.803,0v6.783
			H673.772z"/>
		<path fill="#87898E" d="M707.161,23.026c0.053,0.742-0.212,1.749-1.643,1.749H681.67c0.266,2.278,1.113,4.451,2.703,6.307
			c2.226,2.649,5.564,4.027,9.009,4.08c2.915,0.053,5.882-0.848,8.319-2.702c0.955-0.742,2.227,0.317,1.219,1.324
			c-2.385,2.226-5.882,3.232-9.379,3.18c-4.134-0.053-8.215-1.59-10.652-4.717c-2.226-2.861-3.392-6.146-3.18-10.121
			c0.266-5.724,3.975-10.864,9.698-12.454c2.438-0.636,5.353-0.688,8.002,0C703.344,11.262,707.055,16.19,707.161,23.026z
			 M681.618,23.026h23.741c-0.106-5.829-3.233-10.228-8.532-11.658c-2.119-0.53-4.61-0.53-6.783,0.053
			C684.745,12.852,681.67,17.728,681.618,23.026z"/>
		<path fill="#87898E" d="M716.12,16.297c1.166-4.028,5.193-6.783,9.592-6.783c0.583,0,0.953,0.317,0.953,0.9
			s-0.37,0.901-0.953,0.901c-6.783,0-9.592,5.776-9.592,12.188v12.241c0,0.583-0.424,0.954-0.9,0.954
			c-0.584,0-0.955-0.371-0.955-0.954V10.414c0-0.477,0.371-0.9,0.955-0.9c0.477,0,0.9,0.424,0.9,0.9V16.297z"/>
	</g>
	<circle fill="#D87D64" cx="136.647" cy="22.706" r="4.5"/>
	<circle fill="#D87D64" cx="300.647" cy="22.706" r="4.5"/>
	<circle fill="#D87D64" cx="553.147" cy="22.706" r="4.5"/>
</g>
</svg>
