<?xml version="1.0" encoding="utf-8"?>
<!-- Generator: Adobe Illustrator 16.0.0, SVG Export Plug-In . SVG Version: 6.00 Build 0)  -->
<!DOCTYPE svg PUBLIC "-//W3C//DTD SVG 1.1//EN" "http://www.w3.org/Graphics/SVG/1.1/DTD/svg11.dtd">
<svg version="1.1" id="Layer_1" xmlns="http://www.w3.org/2000/svg" xmlns:xlink="http://www.w3.org/1999/xlink" x="0px" y="0px"
	 width="121px" height="134.667px" viewBox="0 0 121 134.667" enable-background="new 0 0 121 134.667" xml:space="preserve">
<path d="M89.352,50.642c-2.443,4.777-4.53,3.83-6.715,0.49c-4.27-6.523-8.586-6.483-11.461-7.318
	c-4.091-1.188-4.525-7.523-1.511-11.22l0,0c2.915-2.821,8.553-4.371,13.126-3.01c4.683,1.395,6.125,2.25,8.375,3.375
	c6.357,3.179,13.85,15.609,8.125,14.25c-0.564-0.133-2.827-0.456-3.618-0.396C94.415,46.907,91.776,45.901,89.352,50.642z"/>
<path fill="#D87D64" d="M23.167,60.084c0,0-10-0.25-10.75-7.75c0,0-1-1.5-2.5,2.5c0,0-12.5,27.5,1.75,50.75c0,0,5,1.5,5-3.5
	c0,0-8.25-23.75,6.25-38.5C22.917,63.584,26.917,59.834,23.167,60.084z"/>
<path d="M14.917,110.834c0,0,3.25,0.25,5.25-3.75c0,0,0.75-1.5,2.75,2.75c0,0,12.75,15.5,25.5,15.5c0,0,2.5,4-1.5,4.75
	c0,0-27.75-9.5-31.25-16C15.667,114.084,12.417,110.084,14.917,110.834z"/>
<path fill="#D87D64" d="M51.917,125.584c1,1.063,0.125,3.5-0.75,4.75c-0.183,0.261,23.003,5.496,43-17c0.5-0.563-1.25,0.125-2-1.75
	c0,0-15.5,20.5-38.5,13.5C53.667,125.084,50.493,124.071,51.917,125.584z"/>
<path d="M97.283,109.053c0.687,0.464,0.867,1.396,0.403,2.083l0,0c-0.463,0.687-1.396,0.866-2.082,0.403l-1.554-1.049
	c-0.687-0.464-0.867-1.396-0.403-2.083l0,0c0.463-0.687,1.396-0.867,2.082-0.403L97.283,109.053z"/>
<path fill="#D87D64" d="M92.667,106.334c0,0-4.625-6.25-3.625-11.75c0,0,1.5-2.875,2-0.75c0,0,0.375,7.375,3,12.25
	C94.042,106.084,94.667,107.459,92.667,106.334z"/>
<path fill="#D87D64" d="M100.188,110.701c0,0,7.769,0.307,11.753-3.614c0,0,1.533-2.858-0.505-2.075c0,0-6.308,3.839-11.815,4.411
	C99.621,109.423,98.132,109.681,100.188,110.701z"/>
<path fill="#D87D64" d="M93.917,91.584c0,0,0,9.625,1.875,14.875c0,0,0.625,0.75,1.625,0.5c0,0,3.75-9.375,3.5-13
	c0,0-1.125-3-6-3.125C94.917,90.834,93.667,90.959,93.917,91.584z"/>
<path fill="#D87D64" d="M112.34,100.924c0,0-7.599,5.907-12.895,7.648c0,0-0.976-0.033-1.393-0.977c0,0,5.101-8.714,8.116-10.741
	c0,0,3.06-0.953,6.149,2.819C112.319,99.674,112.988,100.737,112.34,100.924z"/>
<path fill="#D87D64" d="M102.042,92.834c0,0,0.375-1.792,3.5-0.792c0,0,2.25,1.042,1.375,3.292c0,0-2.375,0-3.5,1.625
	c0,0-0.875,0.75-0.875-0.5C102.542,96.459,103.083,94.126,102.042,92.834z"/>
<path fill="#D87D64" d="M112.855,62.421c-1.212-8.211-6.37-10.357-12.536-9.446c-6.165,0.908-11.004,4.531-9.793,12.741
	c1.213,8.211,7.974,17.61,14.14,16.7C110.833,81.507,114.068,70.632,112.855,62.421z M98.132,74.767
	c-1.31,0-2.371-1.062-2.371-2.372c0-1.31,1.062-2.371,2.371-2.371c1.311,0,2.372,1.062,2.372,2.371
	C100.504,73.705,99.443,74.767,98.132,74.767z M107.864,73.54c-1.31,0-2.371-1.063-2.371-2.372s1.062-2.371,2.371-2.371
	s2.372,1.062,2.372,2.371S109.173,73.54,107.864,73.54z"/>
<g>
	<path fill="#D87D64" d="M69.112,62.728c-2.794,4.13-4.736,4.949-5.902,4.159c-1.171-0.792-1.126-2.897,1.666-7.028
		c2.788-4.125,8.132-9.13,8.912-8.605C74.685,51.864,71.903,58.601,69.112,62.728z"/>
	<path fill="#D87D64" d="M75.419,65.114c-0.357,4.971-1.625,6.653-3.034,6.554c-1.405-0.101-2.422-1.947-2.065-6.922
		c0.353-4.966,2.475-11.974,3.413-11.907C74.815,52.919,75.774,60.146,75.419,65.114z"/>
	<path fill="#D87D64" d="M81.52,60.717c2.4,4.37,2.244,6.473,1.009,7.15c-1.235,0.68-3.09-0.318-5.49-4.692
		c-2.396-4.362-4.413-11.4-3.592-11.855C74.401,50.799,79.125,56.351,81.52,60.717z"/>
</g>
<g>
	<path fill="#D87D64" d="M108.67,33.409c3.769,3.265,4.352,5.29,3.429,6.355c-0.926,1.067-3.011,0.773-6.781-2.489
		c-3.764-3.259-8.1-9.159-7.486-9.872C98.545,26.586,104.904,30.148,108.67,33.409z"/>
	<path fill="#D87D64" d="M111.789,27.43c4.894,0.945,6.414,2.403,6.148,3.791c-0.267,1.384-2.222,2.174-7.119,1.229
		c-4.888-0.94-11.596-3.88-11.417-4.804C99.609,26.582,106.898,26.487,111.789,27.43z"/>
	<path fill="#D87D64" d="M108.147,20.85c4.625-1.863,6.693-1.459,7.22-0.151c0.528,1.307-0.683,3.03-5.311,4.894
		c-4.616,1.862-11.844,3.027-12.198,2.159C97.455,26.741,103.528,22.71,108.147,20.85z"/>
</g>
<g>
	<path fill="#D87D64" d="M61.954,13.623c4.146-0.13,5.644,0.779,5.681,1.95c0.035,1.176-1.404,2.173-5.55,2.304
		c-4.139,0.131-10.117-1.029-10.144-1.812C51.916,15.162,57.813,13.754,61.954,13.623z"/>
	<path fill="#D87D64" d="M60.487,8.208c3.524-2.183,5.277-2.149,5.898-1.151c0.617,0.997-0.133,2.582-3.66,4.767
		c-3.519,2.182-9.276,4.169-9.688,3.503C52.564,14.56,56.966,10.39,60.487,8.208z"/>
	<path fill="#D87D64" d="M54.551,6.24c1.775-3.748,3.268-4.667,4.327-4.165c1.061,0.501,1.292,2.238-0.485,5.987
		c-1.772,3.742-5.533,8.531-6.239,8.201C51.337,15.872,52.775,9.983,54.551,6.24z"/>
</g>
<path fill="#D87D64" d="M15.75,48.187c0,0-0.583,8.897,11.083,9.147c0,0,4.083-0.75,5.357-2.692c0,0,12.625-18.752,30.534-12.604
	c0,0,2.359,1.296,1.609-2.204s-1.225-11.021,7.583-12.25c0,0,2.723-1.77-0.972-2.76s-19.028-6.49-38.528,2.344
	C32.417,27.168,17.218,35.891,15.75,48.187z"/>
</svg>
